<?xml version="1.0" encoding="utf-8"?>
<svg width="46px" height="46px" viewBox="0 0 46 46" version="1.1" xmlns:xlink="http://www.w3.org/1999/xlink" xmlns="http://www.w3.org/2000/svg">
  <defs>
    <path d="M0 0L24.513 0L24.513 24.5131L0 24.5131L0 0Z" id="path_1" />
    <clipPath id="mask_1">
      <use xlink:href="#path_1" />
    </clipPath>
  </defs>
  <g id="Group-21">
    <path d="M0 23C0 10.2975 10.2975 0 23 0C35.7025 0 46 10.2975 46 23C46 35.7025 35.7025 46 23 46C10.2975 46 0 35.7025 0 23Z" id="Ellipse-5" fill="#2D3748" fill-rule="evenodd" stroke="none" />
    <g id="transfer-2-Copy-2" transform="matrix(-4.371139E-08 1 -1 -4.371139E-08 35.013123 11.486938)">
      <path d="M0 0L24.513 0L24.513 24.5131L0 24.5131L0 0Z" id="Background" fill="none" fill-rule="evenodd" stroke="none" />
      <g clip-path="url(#mask_1)">
        <g id="Group" transform="translate(0 2.6262207)">
          <g id="Group">
            <path d="M24.2567 6.3847L18.1284 0.256322C17.7864 -0.0855261 17.2321 -0.0854234 16.8902 0.256527C16.7261 0.42068 16.634 0.643209 16.6339 0.875331L16.6339 3.50177L10.5055 3.50177C10.022 3.50177 9.63005 3.89374 9.63005 4.37727C9.63005 4.8608 10.022 5.25277 10.5055 5.25277L17.5094 5.25277C17.9929 5.25277 18.3849 4.8608 18.3849 4.37727L18.3849 2.98869L22.3999 7.00366L18.3849 11.0186L18.3849 9.6301C18.3849 9.14657 17.9929 8.7546 17.5094 8.7546L7.87911 8.7546L7.87911 6.12816C7.87901 5.64463 7.48694 5.25277 7.00346 5.25287C6.77139 5.25292 6.54881 5.3451 6.38466 5.5092L0.256347 11.6376C-0.0854489 11.9795 -0.0854489 12.5337 0.256347 12.8755L6.38471 19.0039C6.54886 19.1681 6.7715 19.2604 7.00367 19.2604C7.11873 19.2608 7.23276 19.2382 7.33895 19.1939C7.66602 19.0583 7.87921 18.739 7.87911 18.3849L7.87911 15.7585L14.0075 15.7585C14.491 15.7585 14.883 15.3665 14.883 14.883C14.883 14.3995 14.491 14.0075 14.0075 14.0075L7.00367 14.0075C6.52014 14.0075 6.12817 14.3995 6.12817 14.883L6.12817 16.2715L2.11322 12.2565L6.12817 8.24158L6.12817 9.6301C6.12817 10.1136 6.52014 10.5056 7.00367 10.5056L16.6339 10.5056L16.6339 13.132C16.634 13.6156 17.0261 14.0074 17.5096 14.0073C17.7416 14.0073 17.9642 13.9151 18.1284 13.751L24.2567 7.62262C24.5985 7.28072 24.5985 6.72655 24.2567 6.3847L24.2567 6.3847Z" id="Shape" fill="#A0AEC0" fill-rule="evenodd" stroke="none" />
          </g>
        </g>
      </g>
    </g>
  </g>
</svg>