<?xml version="1.0" encoding="utf-8"?>
<svg width="237px" height="154px" viewBox="0 0 237 154" version="1.1" xmlns:xlink="http://www.w3.org/1999/xlink" xmlns="http://www.w3.org/2000/svg">
  <defs>
    <path d="M0 0L134.149 0L134.149 134.149L0 134.149L0 0Z" id="path_1" />
    <clipPath id="mask_1">
      <use xlink:href="#path_1" />
    </clipPath>
  </defs>
  <g id="Group-10-Copy">
    <g id="giftbox" transform="translate(47.061035 18.877441)">
      <path d="M0 0L134.149 0L134.149 134.149L0 134.149L0 0Z" id="Background" fill="none" fill-rule="evenodd" stroke="none" />
      <g clip-path="url(#mask_1)">
        <g id="Group" transform="translate(0 1.1877435)">
          <path d="M0 19.9986C0 19.9986 10.8109 -2.39923 36.6312 0.211748C37.7829 0.339852 38.827 0.948871 39.5053 1.8885C42.3437 5.67012 43.8005 10.3098 43.6337 15.0352C43.1459 23.6644 11.2837 30.3114 11.2837 30.3114L4.53104 28.9701L0 19.9986Z" transform="translate(67.76857 0)" id="Shape" fill="#FFFFFF" fill-rule="evenodd" stroke="none" />
          <path d="M20.6053 10.785C14.0141 13.2487 7.03643 14.5165 0 14.5294C9.3984 6.03404 21.3661 0.922478 34.0016 0.00624867C35.4905 -0.116155 36.0474 1.5876 35.0228 2.67573C32.7139 5.12051 26.8449 8.40382 20.6053 10.785L20.6053 10.785Z" transform="translate(74.102066 12.652887)" id="Shape" fill="#D5D5D5" fill-rule="evenodd" stroke="none" />
          <path d="M43.6466 19.9986C43.6466 19.9986 32.8357 -2.39923 7.01541 0.211748C5.86368 0.339852 4.81964 0.948871 4.14132 1.8885C1.30293 5.67012 -0.153919 10.3098 0.0128865 15.0352C0.501002 23.6644 32.3629 30.3114 32.3629 30.3114L39.1155 28.9701L43.6466 19.9986Z" transform="translate(24.117193 0)" id="Shape" fill="#FFFFFF" fill-rule="evenodd" stroke="none" />
          <path d="M14.94 10.785C21.5312 13.2487 28.5089 14.5165 35.5453 14.5294C30.2891 9.85346 24.243 6.14924 17.6902 3.58956C12.4997 1.6536 7.06566 0.447863 1.54369 0.00624867C0.0547389 -0.116155 -0.50208 1.5876 0.522453 2.67573C2.82323 5.12051 8.70882 8.40382 14.94 10.785L14.94 10.785Z" transform="translate(25.884771 12.652887)" id="Shape" fill="#D5D5D5" fill-rule="evenodd" stroke="none" />
          <path d="M0 8.10265C0 3.62768 3.62768 0 8.10266 0C12.5776 0 16.2053 3.62768 16.2053 8.10265C16.2053 12.5776 12.5776 16.2053 8.10266 16.2053C3.62768 16.2053 0 12.5776 0 8.10265Z" transform="translate(58.97682 19.371542)" id="Circle" fill="#27DC8A" fill-rule="evenodd" stroke="none" />
          <path d="M1.66175 2.28889e-06L132.487 2.28889e-06C133.405 2.28889e-06 134.149 0.744027 134.149 1.66176L134.149 23.2696C134.149 24.1874 133.405 24.9314 132.487 24.9314L1.66175 24.9314C0.744024 24.9314 0 24.1874 0 23.2696L0 1.66175C0 0.744024 0.744024 0 1.66175 0L1.66175 2.28889e-06Z" transform="translate(0 27.472399)" id="Shape" fill="#27DC8A" fill-rule="evenodd" stroke="none" />
          <path d="M120.92 0L120.92 82.2785C120.917 83.195 120.175 83.9376 119.258 83.9403L1.66175 83.9403C0.745224 83.9376 0.00269975 83.195 0 82.2785L0 0L120.92 0Z" transform="translate(6.6184096 47.832863)" id="Shape" fill="#27DC8A" fill-rule="evenodd" stroke="none" />
          <path d="M0 0L120.922 0L120.922 5.81688L1.14445e-06 5.81688L0 0Z" transform="translate(6.6184096 52.404087)" id="Shape" fill="#13C273" fill-rule="evenodd" stroke="none" />
          <path d="M4.57778e-06 0L19.4532 0L19.4532 104.299L0 104.299L4.57778e-06 0Z" transform="translate(57.352066 27.472399)" id="Shape" fill="#FFFFFF" fill-rule="evenodd" stroke="none" />
          <path d="M0 0L19.4634 0L19.4634 5.81688L0 5.81688L0 0Z" transform="translate(57.34694 52.404087)" id="Shape" fill="#E6E6E6" fill-rule="evenodd" stroke="none" />
        </g>
      </g>
    </g>
    <g id="Group-7" transform="translate(166 0)">
      <path d="M4.77699 1.62152C4.79651 1.80144 6.65387 19.697 0.387849 26.4895C-0.160304 27.0837 -0.122839 28.0096 0.471175 28.5576C0.752568 28.8171 1.10832 28.9453 1.46328 28.9453C1.85766 28.9453 2.25088 28.7869 2.53949 28.4741C9.69751 20.7144 7.77262 2.09492 7.68715 1.30596C7.60012 0.502369 6.87848 -0.0775942 6.0745 0.00846244C5.2709 0.0958858 4.68996 0.817912 4.777 1.62151L4.77699 1.62152Z" transform="matrix(0.8480481 -0.52991927 0.52991927 0.8480481 24.5625 33.590996)" id="Shape" fill="#27DC8A" fill-rule="evenodd" stroke="none" />
      <path d="M3.33161 9.83662C0.855647 13.6278 0.0690276 17.0114 0.0366309 17.1537C-0.142117 17.9409 0.350617 18.7226 1.13743 18.9029C1.24729 18.9279 1.35677 18.94 1.46488 18.94C2.13129 18.94 2.73408 18.481 2.89039 17.8043C2.89742 17.7738 3.62178 14.7121 5.83938 11.3501C8.75735 6.92647 12.7683 4.07914 17.7606 2.88741C18.5469 2.69988 19.0322 1.91033 18.8444 1.1241C18.6569 0.337874 17.8676 -0.14725 17.0811 0.0402815C11.3836 1.40023 6.62892 4.7877 3.33161 9.83662L3.33161 9.83662Z" transform="matrix(0.8480481 -0.52991927 0.52991927 0.8480481 31.635746 16.919498)" id="Shape-2" fill="#FFFFFF" fill-rule="evenodd" stroke="none" />
      <path d="M3.59181 13.0338C3.59689 13.0693 3.60352 13.1544 3.59045 13.3261L3.24583 17.5845C3.19685 18.036 3.10006 19.0469 3.92512 19.6711C4.76423 20.3061 5.7499 19.908 6.18565 19.7322L10.0971 18.102C10.1746 18.077 10.3656 18.0762 10.4362 18.0981L14.3787 19.7381C14.6267 19.8384 15.0713 20.0179 15.5661 20.0179C15.9096 20.0179 16.2774 19.9314 16.6205 19.6717C17.4432 19.049 17.347 18.038 17.298 17.5853L16.9597 13.3329C16.9466 13.1616 16.9513 13.0745 16.9558 13.0359L19.7972 9.61174C20.1255 9.23901 20.7735 8.4844 20.4683 7.50595C20.1586 6.51327 19.1501 6.2629 18.7193 6.15596L14.3992 5.08443L12.1271 1.29184C11.9181 0.93922 11.3632 0.0029272 10.279 0C10.2772 0 10.2754 0 10.2739 0C9.1926 0 8.63235 0.933171 8.4212 1.28501C8.421 1.2854 8.42081 1.28579 8.42062 1.28618L6.16614 5.04989L6.14564 5.08463L1.82246 6.15674C1.39276 6.26407 0.386217 6.51561 0.0775019 7.5081C-0.22692 8.48635 0.443001 9.26692 0.747428 9.61252L3.59181 13.0338ZM6.98964 7.89095C7.96555 7.64975 8.31758 7.16638 8.62006 6.65004L10.2717 3.89111L11.9386 6.67345C12.2397 7.17907 12.5898 7.65268 13.5527 7.89056L16.7614 8.68635L14.695 11.1764C14.0157 11.9792 13.9884 12.8692 14.0411 13.5602L14.2772 16.5256L11.5679 15.3985C10.7982 15.0734 9.75929 15.0724 8.98223 15.3957L6.2682 16.5268L6.50861 13.5553C6.55622 12.9295 6.5412 12.003 5.8623 11.1863L3.78345 8.68615L6.98964 7.89095Z" transform="matrix(0.8480481 -0.52991927 0.52991927 0.8480481 -2.3841858E-06 23.437323)" id="Shape-3" fill="#FFFFFF" fill-rule="evenodd" stroke="none" />
      <path d="M19.7936 9.61467C20.1021 9.2677 20.7732 8.48948 20.4704 7.51084C20.1622 6.51483 19.1502 6.26349 18.7178 6.15616L14.4038 5.08619L12.1272 1.28501C11.9161 0.933367 11.3558 0 10.2746 0C10.2728 0 10.2711 0 10.2695 0C9.18918 0.00292702 8.6342 0.93278 8.42345 1.28813L6.16467 5.0497L6.14321 5.08619L1.8288 6.15616C1.39676 6.26329 0.384752 6.51463 0.0766205 7.51064C-0.226044 8.48928 0.444853 9.2675 0.753372 9.61427L3.59269 13.0359C3.59718 13.0743 3.60206 13.1598 3.58937 13.3259L3.24436 17.5837C3.1985 18.0339 3.10464 19.0531 3.93185 19.6746C4.7692 20.3038 5.75058 19.9074 6.18438 19.732L10.0962 18.1018C10.1758 18.0762 10.3714 18.0762 10.4402 18.0977L14.3774 19.7379C14.6253 19.838 15.0694 20.0175 15.5645 20.0175C15.9066 20.0175 16.273 19.9316 16.6155 19.6744C17.4427 19.0529 17.3489 18.0339 17.303 17.5835L16.9586 13.3327C16.9455 13.1616 16.9502 13.0745 16.9547 13.0357L19.7936 9.61467ZM14.6943 11.1767C14.0148 11.9794 13.9874 12.8696 14.0401 13.5628L14.2804 16.527L11.5659 15.3959C10.793 15.0739 9.75422 15.0741 8.98146 15.3959L6.26703 16.527L6.50783 13.5555C6.56013 12.8696 6.53281 11.9794 5.8625 11.1875L3.78735 8.68654L6.99842 7.89016C7.96672 7.64819 8.31719 7.16619 8.61869 6.6516L10.276 3.89014L11.8702 6.55149L11.9293 6.6516C12.2306 7.16638 12.5813 7.64838 13.5521 7.89075L16.7608 8.68654L14.6943 11.1767Z" transform="matrix(0.8480481 -0.52991927 0.52991927 0.8480481 42.102295 36.80137)" id="Shape-4" fill="#27DC8A" fill-rule="evenodd" stroke="none" />
      <path d="M7.32194 14.6339C11.3592 14.6339 14.6439 11.3528 14.6439 7.31979C14.6439 3.28366 11.3592 0 7.32194 0C3.28464 0 0 3.28366 0 7.31979C0 11.3528 3.28464 14.6339 7.32194 14.6339L7.32194 14.6339ZM7.32185 2.92725C9.74513 2.92725 11.7167 4.89779 11.7167 7.3199C11.7167 9.73888 9.74513 11.7069 7.32185 11.7069C4.89857 11.7069 2.92725 9.73889 2.92725 7.3199C2.92705 4.89779 4.89857 2.92725 7.32185 2.92725L7.32185 2.92725Z" transform="matrix(0.8480481 -0.52991927 0.52991927 0.8480481 21.140135 7.7600756)" id="Shape-5" fill="#27DC8A" fill-rule="evenodd" stroke="none" />
    </g>
    <g id="Group-6" transform="translate(0 5.6555176)">
      <path d="M4.28727 1.45528C4.30479 1.61676 5.97174 17.6777 0.348088 23.7739C-0.14387 24.3072 -0.110246 25.1382 0.422872 25.63C0.675417 25.8629 0.994697 25.978 1.31327 25.978C1.66722 25.978 2.02013 25.8358 2.27915 25.555C8.70336 18.5909 6.9758 1.88016 6.8991 1.17208C6.82098 0.450868 6.17333 -0.0696395 5.45176 0.0075949C4.73055 0.086056 4.20916 0.734063 4.28728 1.45528L4.28727 1.45528Z" transform="matrix(-0.90630776 -0.4226183 -0.4226183 0.90630776 39.57836 28.9386)" id="Shape-Copy" fill="#27DC8A" fill-rule="evenodd" stroke="none" />
      <path d="M2.99007 8.82821C0.76793 12.2308 0.0619511 15.2675 0.0328756 15.3951C-0.127547 16.1017 0.314673 16.8032 1.02082 16.9651C1.11942 16.9875 1.21767 16.9984 1.3147 16.9984C1.9128 16.9984 2.45379 16.5864 2.59408 15.9791C2.60039 15.9517 3.25049 13.2038 5.24075 10.1866C7.85957 6.21639 11.4593 3.66097 15.9399 2.5914C16.6455 2.4231 17.0811 1.71449 16.9126 1.00886C16.7443 0.303236 16.0358 -0.132154 15.33 0.0361519C10.2166 1.25668 5.94935 4.29689 2.99006 8.82821L2.99007 8.82821Z" transform="matrix(-0.90630776 -0.4226183 -0.4226183 0.90630776 31.45434 14.861332)" id="Shape-2-Copy" fill="#FFFFFF" fill-rule="evenodd" stroke="none" />
      <path d="M3.2236 11.6976C3.22815 11.7295 3.2341 11.8058 3.22237 11.9599L2.91308 15.7818C2.86912 16.187 2.78225 17.0943 3.52273 17.6545C4.27582 18.2244 5.16044 17.8671 5.55152 17.7093L9.06197 16.2462C9.1315 16.2238 9.30296 16.2231 9.36636 16.2427L12.9047 17.7146C13.1273 17.8046 13.5262 17.9657 13.9704 17.9657C14.2786 17.9657 14.6087 17.8881 14.9166 17.655C15.655 17.0962 15.5687 16.1888 15.5247 15.7825L15.221 11.9661C15.2093 11.8123 15.2135 11.7342 15.2175 11.6995L17.7677 8.62638C18.0623 8.29186 18.6439 7.61461 18.37 6.73647C18.092 5.84555 17.1869 5.62085 16.8002 5.52487L12.923 4.5632L10.8839 1.15941C10.6963 0.842935 10.1983 0.00262712 9.22519 0C9.22362 0 9.22204 0 9.22064 0C8.25021 0 7.74739 0.837505 7.55789 1.15328C7.55771 1.15363 7.55754 1.15398 7.55737 1.15433L5.53401 4.5322L5.51561 4.56337L1.63563 5.52557C1.24998 5.6219 0.346624 5.84765 0.0695567 6.7384C-0.203657 7.61636 0.397586 8.31691 0.670805 8.62708L3.2236 11.6976ZM6.27301 7.08197C7.14888 6.8655 7.46482 6.43169 7.73629 5.96828L9.21865 3.49219L10.7147 5.98929C10.9849 6.44307 11.2991 6.86813 12.1632 7.08162L15.043 7.79583L13.1885 10.0306C12.5788 10.7511 12.5543 11.5499 12.6016 12.1701L12.8135 14.8314L10.3819 13.8198C9.69116 13.5281 8.75873 13.5272 8.06133 13.8174L5.62553 14.8325L5.8413 12.1657C5.88403 11.604 5.87054 10.7725 5.26124 10.0395L3.39551 7.79566L6.27301 7.08197Z" transform="matrix(-0.90630776 -0.4226183 -0.4226183 0.90630776 60.34862 17.207434)" id="Shape-3-Copy" fill="#FFFFFF" fill-rule="evenodd" stroke="none" />
      <path d="M17.7644 8.62901C18.0413 8.31761 18.6436 7.61916 18.3718 6.74085C18.0953 5.84695 17.187 5.62138 16.7989 5.52505L12.9272 4.56477L10.884 1.15328C10.6945 0.837681 10.1917 0 9.22125 0C9.21968 0 9.2181 0 9.2167 0C8.24714 0.00262695 7.74905 0.837155 7.55991 1.15608L5.53269 4.53202L5.51343 4.56477L1.64132 5.52505C1.25357 5.6212 0.345309 5.84678 0.0687657 6.74067C-0.202871 7.61899 0.399248 8.31743 0.676139 8.62865L3.22438 11.6995C3.22841 11.734 3.23279 11.8107 3.2214 11.9598L2.91176 15.7811C2.87061 16.1851 2.78636 17.0999 3.52877 17.6577C4.28028 18.2223 5.16105 17.8666 5.55038 17.7092L9.06117 16.2461C9.13263 16.2231 9.30812 16.2231 9.36994 16.2424L12.9035 17.7144C13.1259 17.8043 13.5245 17.9654 13.9689 17.9654C14.2759 17.9654 14.6048 17.8883 14.9122 17.6575C15.6546 17.0997 15.5703 16.1851 15.5292 15.7809L15.22 11.9659C15.2083 11.8123 15.2125 11.7342 15.2165 11.6993L17.7644 8.62901ZM13.1879 10.0308C12.5781 10.7512 12.5536 11.5501 12.6009 12.1722L12.8165 14.8326L10.3803 13.8175C9.68659 13.5285 8.75434 13.5287 8.06079 13.8175L5.62464 14.8326L5.84076 12.1657C5.8877 11.5501 5.86317 10.7512 5.26158 10.0405L3.39917 7.7959L6.28105 7.08117C7.15008 6.864 7.46462 6.43141 7.73521 5.96958L9.22265 3.49121L10.6533 5.87973L10.7064 5.96958C10.9768 6.43159 11.2916 6.86418 12.1629 7.0817L15.0426 7.79591L13.1879 10.0308Z" transform="matrix(-0.90630776 -0.4226183 -0.4226183 0.90630776 24.305412 33.71705)" id="Shape-4-Copy" fill="#27DC8A" fill-rule="evenodd" stroke="none" />
      <path d="M6.57132 13.1337C10.1947 13.1337 13.1426 10.1889 13.1426 6.56939C13.1426 2.94703 10.1947 0 6.57132 0C2.94791 0 0 2.94703 0 6.56939C0 10.1889 2.94791 13.1337 6.57132 13.1337L6.57132 13.1337ZM6.57128 2.62695C8.74613 2.62695 10.5155 4.39549 10.5155 6.56929C10.5155 8.74029 8.74613 10.5065 6.57128 10.5065C4.39643 10.5065 2.6272 8.74029 2.6272 6.56929C2.62702 4.39549 4.39643 2.62695 6.57128 2.62695L6.57128 2.62695Z" transform="matrix(-0.90630776 -0.4226183 -0.4226183 0.90630776 39.802242 5.5543346)" id="Shape-5-Copy" fill="#27DC8A" fill-rule="evenodd" stroke="none" />
    </g>
  </g>
</svg>